<svg xmlns="http://www.w3.org/2000/svg" viewBox="0 0 104.46 44.95"><defs><style>.cls-1,.cls-2,.cls-3{fill:#fff;}.cls-2,.cls-5,.cls-6{stroke:#fff;}.cls-2,.cls-3,.cls-4{stroke-miterlimit:10;}.cls-3,.cls-4{stroke:#000;}.cls-3,.cls-4,.cls-5,.cls-6{stroke-linecap:round;}.cls-5{fill:none;}.cls-5,.cls-6{stroke-linejoin:round;}</style></defs><g id="图层_2" data-name="图层 2"><g id="图层_1-2" data-name="图层 1"><path d="M1,43.45V1.5H25.34c4,0,7.09,1,9.2,2.94a9.55,9.55,0,0,1,3.17,7.25,9.19,9.19,0,0,1-2.25,6.21A10.16,10.16,0,0,1,31,20.62l-1.62.56,1.67.4a11.59,11.59,0,0,1,6.53,3.65,10.07,10.07,0,0,1,2.08,6.5,11.26,11.26,0,0,1-1.49,5.76,10.9,10.9,0,0,1-4.06,4,13.76,13.76,0,0,1-4.86,1.35c-2.95.38-4.93.58-5.88.58Zm12.39-8.23h7.27c2.43,0,4.12-.44,5.16-1.34a4.58,4.58,0,0,0,1.58-3.64,4.28,4.28,0,0,0-1.58-3.45c-1-.85-2.73-1.27-5.19-1.27H13.39Zm0-16.87h6.27c2.22,0,3.74-.39,4.65-1.2a4.38,4.38,0,0,0,1.39-3.46,4.17,4.17,0,0,0-1.39-3.31C23.4,9.59,21.9,9.2,19.75,9.2H13.39Z" transform="translate(-0.5)"/><path class="cls-1" d="M25.34,2c3.87,0,6.85,1,8.86,2.81a8.93,8.93,0,0,1,3,6.88,8.58,8.58,0,0,1-2.13,5.88,9.7,9.7,0,0,1-4.2,2.58l-3.23,1.12,3.32.8a11.19,11.19,0,0,1,6.27,3.48,9.57,9.57,0,0,1,2,6.18,10.82,10.82,0,0,1-1.42,5.51,10.54,10.54,0,0,1-3.88,3.85,13.06,13.06,0,0,1-4.67,1.28c-2.93.38-4.89.58-5.82.58H1.5V2H25.34M12.89,18.85h6.77c2.34,0,4-.44,5-1.32a4.88,4.88,0,0,0,1.56-3.84A4.67,4.67,0,0,0,24.64,10c-1-.87-2.61-1.3-4.89-1.3H12.89V18.85m0,16.87h7.77c2.55,0,4.35-.48,5.48-1.46a5.05,5.05,0,0,0,1.76-4,4.73,4.73,0,0,0-1.76-3.83C25,25.47,23.22,25,20.63,25H12.89v10.7M25.34,1H.5V44H23.41a58.73,58.73,0,0,0,5.95-.59,14.16,14.16,0,0,0,5-1.4,11.45,11.45,0,0,0,4.24-4.22,11.68,11.68,0,0,0,1.56-6A10.5,10.5,0,0,0,38,24.92,12,12,0,0,0,31.2,21.1a10.62,10.62,0,0,0,4.63-2.87,9.65,9.65,0,0,0,2.38-6.54,10,10,0,0,0-3.33-7.61Q31.55,1,25.34,1ZM13.89,17.85V9.7h5.86c2,0,3.42.35,4.23,1.06a3.67,3.67,0,0,1,1.22,2.93A3.92,3.92,0,0,1,24,16.78c-.81.71-2.25,1.07-4.32,1.07Zm0,16.87V26h6.74c2.32,0,3.95.39,4.87,1.16a3.78,3.78,0,0,1,1.4,3.06,4.08,4.08,0,0,1-1.41,3.26c-.94.82-2.55,1.22-4.83,1.22Z" transform="translate(-0.5)"/><path class="cls-1" d="M5,44.45V.5H30.29c4.25,0,7.58,1.08,9.88,3.21a10.5,10.5,0,0,1,3.49,8,10.12,10.12,0,0,1-2.5,6.86A10,10,0,0,1,37.71,21a11.62,11.62,0,0,1,5.64,3.6,11,11,0,0,1,2.3,7.12A12.32,12.32,0,0,1,44,38a12.06,12.06,0,0,1-4.43,4.4,14.52,14.52,0,0,1-5.23,1.47,56.92,56.92,0,0,1-6,.59ZM25.61,34.22c2.15,0,3.66-.37,4.5-1.09a3.61,3.61,0,0,0,1.24-2.89,3.29,3.29,0,0,0-1.21-2.68c-.84-.69-2.37-1-4.56-1H19.34v7.7Zm-1-16.87c1.94,0,3.28-.32,4-1a3.38,3.38,0,0,0,1-2.71,3.17,3.17,0,0,0-1-2.56c-.71-.62-2-.93-3.9-.93H19.34v7.15Z" transform="translate(-0.5)"/><path d="M30.29,1q6.21,0,9.54,3.08a10,10,0,0,1,3.33,7.61,9.65,9.65,0,0,1-2.38,6.54,10.62,10.62,0,0,1-4.63,2.87A12,12,0,0,1,43,24.92a10.5,10.5,0,0,1,2.19,6.81,11.68,11.68,0,0,1-1.56,6A11.45,11.45,0,0,1,39.35,42a14.16,14.16,0,0,1-5,1.4,58.73,58.73,0,0,1-6,.59H5.45V1H30.29M18.84,17.85h5.77c2.07,0,3.51-.36,4.32-1.07a3.92,3.92,0,0,0,1.22-3.09,3.67,3.67,0,0,0-1.22-2.93c-.81-.71-2.22-1.06-4.23-1.06H18.84v8.15m0,16.87h6.77c2.28,0,3.89-.4,4.83-1.22a4.08,4.08,0,0,0,1.41-3.26,3.8,3.8,0,0,0-1.39-3.06Q29.07,26,25.58,26H18.84v8.7M30.29,0H4.45V45H28.36a58.66,58.66,0,0,0,6.08-.6,14.71,14.71,0,0,0,5.41-1.53,12.43,12.43,0,0,0,4.61-4.58,12.74,12.74,0,0,0,1.69-6.51,11.52,11.52,0,0,0-2.41-7.44A11.34,11.34,0,0,0,39,20.94a9.8,9.8,0,0,0,2.58-2.06,10.65,10.65,0,0,0,2.62-7.19,11,11,0,0,0-3.65-8.35C38.11,1.12,34.68,0,30.29,0ZM19.84,10.7H24.7c2.18,0,3.15.44,3.58.81a2.73,2.73,0,0,1,.87,2.18A2.94,2.94,0,0,1,28.27,16c-.42.37-1.4.82-3.66.82H19.84V10.7Zm0,16.32h5.74c2.58,0,3.73.5,4.24.93a2.77,2.77,0,0,1,1,2.29,3.14,3.14,0,0,1-1.06,2.51c-.74.63-2.18,1-4.18,1H19.84V27Z" transform="translate(-0.5)"/><polygon class="cls-1" points="34.97 44.45 34.97 34.83 58.11 12 37.29 12 37.29 0.5 75.84 0.5 75.84 9.8 52.48 32 76.73 32 76.72 44.45 34.97 44.45"/><path d="M75.84,1V9.58L51.73,32.5h25V44H36V35L59.83,11.5H38.29V1H75.84m1-1H37.29V12.5h20.1L35.27,34.33l-.3.29V45H77.72V31.5H54.23l22.3-21.19.31-.3V0Z" transform="translate(-0.5)"/><polygon class="cls-1" points="68.98 44.45 68.98 0.5 83.25 0.5 83.72 34 103.97 34 103.97 44.45 68.98 44.45"/><path d="M83.25,1l.48,33.5H104V44H70V1H83.25m1-1H69V45h36V33.5H84.71L84.25,1V0Z" transform="translate(-0.5)"/><rect class="cls-2" x="91.73" y="1" width="12" height="12"/><line class="cls-3" x1="103.73" y1="1" x2="91.73" y2="13"/><path d="M50.23,11.5h33.5a0,0,0,0,1,0,0v23a0,0,0,0,1,0,0H55.2a5,5,0,0,1-5-5v-18A0,0,0,0,1,50.23,11.5Z"/><path class="cls-1" d="M69.23,26.5A46,46,0,0,1,61.8,26a46,46,0,0,1-7-1.67c.71-.5,1.44-1,2.18-1.41A32.4,32.4,0,0,1,66.82,19a40.42,40.42,0,0,1,7.4-.68c1.28,0,2.59.06,3.88.18a5.12,5.12,0,0,1,2.66,2.7,4.52,4.52,0,0,1,0,3.57c-.81,1.49-3.5,1.75-9.24,1.75Z" transform="translate(-0.5)"/><path class="cls-1" d="M74.22,18.81h0c1.24,0,2.5.06,3.75.17a4.64,4.64,0,0,1,2.33,2.39,4.05,4.05,0,0,1,0,3.15C79.6,25.9,76.24,26,71.56,26H69.23a45.08,45.08,0,0,1-7.35-.49,42.11,42.11,0,0,1-5.94-1.34c.43-.28.86-.55,1.3-.81a31.75,31.75,0,0,1,9.67-3.88,40.32,40.32,0,0,1,7.31-.67m0-1a40.84,40.84,0,0,0-7.49.69,33.07,33.07,0,0,0-10,4,34.26,34.26,0,0,0-3,2,44.23,44.23,0,0,0,8,2,46.42,46.42,0,0,0,7.5.5h2.33c5.69,0,8.69-.21,9.67-2a5.05,5.05,0,0,0,0-4,5.72,5.72,0,0,0-3-3c-1.42-.13-2.76-.19-4-.19Z" transform="translate(-0.5)"/><path class="cls-4" d="M71.23,21v3" transform="translate(-0.5)"/><path class="cls-4" d="M75.23,21v3" transform="translate(-0.5)"/><path class="cls-5" d="M53.73,24.5a10.46,10.46,0,0,1,1-4,11.6,11.6,0,0,1,5-5,18.82,18.82,0,0,1,18,0,18.06,18.06,0,0,1,4,3,34.17,34.17,0,0,0-28,6Z" transform="translate(-0.5)"/><path class="cls-6" d="M82.83,24.33a6.9,6.9,0,0,1-.65,2.92c-3.28,6.82-19.48,8.8-26,1.75a11.33,11.33,0,0,1-2.5-4.5,37.69,37.69,0,0,0,15.11,2.85A37.74,37.74,0,0,0,82.83,24.33Z" transform="translate(-0.5)"/></g></g></svg>